<?xml version="1.0" encoding="UTF-8" standalone="no"?>
<svg
   viewBox="0 0 448 512"
   version="1.1"
   id="svg4"
   sodipodi:docname="square-caret-down-solid2.svg"
   inkscape:version="1.1.1 (3bf5ae0d25, 2021-09-20)"
   xmlns:inkscape="http://www.inkscape.org/namespaces/inkscape"
   xmlns:sodipodi="http://sodipodi.sourceforge.net/DTD/sodipodi-0.dtd"
   xmlns:xlink="http://www.w3.org/1999/xlink"
   xmlns="http://www.w3.org/2000/svg"
   xmlns:svg="http://www.w3.org/2000/svg">
  <defs
     id="defs8">
    <linearGradient
       inkscape:collect="always"
       id="linearGradient5019">
      <stop
         style="stop-color:#000000;stop-opacity:1;"
         offset="0"
         id="stop5015" />
      <stop
         style="stop-color:#000000;stop-opacity:0;"
         offset="1"
         id="stop5017" />
    </linearGradient>
    <linearGradient
       id="linearGradient4993"
       inkscape:swatch="solid">
      <stop
         style="stop-color:#000000;stop-opacity:1;"
         offset="0"
         id="stop4991" />
    </linearGradient>
    <linearGradient
       inkscape:collect="always"
       id="linearGradient2831">
      <stop
         style="stop-color:#000000;stop-opacity:1;"
         offset="0"
         id="stop2827" />
      <stop
         style="stop-color:#000000;stop-opacity:0;"
         offset="1"
         id="stop2829" />
    </linearGradient>
    <radialGradient
       inkscape:collect="always"
       xlink:href="#linearGradient2831"
       id="radialGradient2835"
       cx="224"
       cy="256"
       fx="224"
       fy="256"
       r="224"
       gradientUnits="userSpaceOnUse" />
    <linearGradient
       inkscape:collect="always"
       xlink:href="#linearGradient5019"
       id="linearGradient5021"
       x1="-0.5"
       y1="256"
       x2="448.5"
       y2="256"
       gradientUnits="userSpaceOnUse" />
  </defs>
  <sodipodi:namedview
     id="namedview6"
     pagecolor="#ffffff"
     bordercolor="#666666"
     borderopacity="1.0"
     inkscape:pageshadow="2"
     inkscape:pageopacity="0.0"
     inkscape:pagecheckerboard="0"
     showgrid="false"
     inkscape:zoom="1.4042969"
     inkscape:cx="223.95549"
     inkscape:cy="256"
     inkscape:window-width="1920"
     inkscape:window-height="1057"
     inkscape:window-x="-8"
     inkscape:window-y="-8"
     inkscape:window-maximized="1"
     inkscape:current-layer="svg4" />
  <!--! Font Awesome Pro 6.1.1 by @fontawesome - https://fontawesome.com License - https://fontawesome.com/license (Commercial License) Copyright 2022 Fonticons, Inc. -->
  <path
     d="M384 32H64C28.65 32 0 60.65 0 96v320c0 35.34 28.65 64 64 64h320c35.35 0 64-28.66 64-64V96C448 60.65 419.3 32 384 32zM345.6 232.3l-104 112C237 349.2 230.7 352 224 352s-13.03-2.781-17.59-7.656l-104-112c-6.5-7-8.219-17.19-4.407-25.94C101.8 197.7 110.5 192 120 192h208c9.531 0 18.19 5.656 21.1 14.41C353.8 215.2 352.1 225.3 345.6 232.3z"
     id="path2"
     style="fill-opacity:1;fill:url(#radialGradient2835);opacity:1;stroke:url(#linearGradient5021);stroke-opacity:1" />
</svg>
